<svg xmlns="http://www.w3.org/2000/svg" width="42" height="42"><path class="fil0 str0" d="M14.587 13.312c2.073 0 3.753 1.936 3.753 4.324 0 .183-.01.364-.03.541-.11 1.025-.533 1.938-1.154 2.61.27.033.702.174 1.191.401 1.386.644 3.24 1.978 3.24 3.487v2.394c0 .904-.722 1.644-1.606 1.644H9.158c-.884 0-1.606-.74-1.606-1.644v-2.394c0-1.853 3.29-3.88 4.286-3.98-.728-.787-1.004-1.818-1.004-3.06 0-2.387 1.68-4.323 3.753-4.323z" style="fill:#0d3653;fill-opacity:1;stroke:#0d3653;stroke-width:1.12171;stroke-linecap:round;stroke-linejoin:round;stroke-miterlimit:22.9256;stroke-opacity:1"/><path class="fil0 str0" d="M6.19 5.875h29.767c2.463 0 4.478 2.056 4.478 4.57v19.851c0 2.514-2.015 4.57-4.478 4.57H6.189c-2.463 0-4.478-2.056-4.478-4.57V10.445c0-2.514 2.015-4.57 4.478-4.57zm16.446 8.73 11.056.014m-8.706 11.97h8.181m.243-5.56-10.252-.072" style="fill:none;stroke:#0d3653;stroke-width:2.66679;stroke-linecap:round;stroke-linejoin:round;stroke-miterlimit:22.9256"/></svg>