<svg xmlns="http://www.w3.org/2000/svg" width="200" height="32" viewBox="0 0 52.917 8.467"><g aria-label="circabc" style="font-style:normal;font-weight:400;font-size:5.25454px;line-height:1.25;font-family:sans-serif;display:inline;fill:#0d3653;fill-opacity:1;stroke:none;stroke-width:.131363"><g aria-label="CIRCABC Share" style="font-style:normal;font-variant:normal;font-weight:400;font-stretch:normal;font-size:5.56477px;line-height:2.55;font-family:'Mairy Regular';-inkscape-font-specification:'Mairy Regular, ';display:inline;fill:#000;fill-opacity:1;stroke:none;stroke-width:.00194635"><path d="M-2.19-3.954c-.201.084-.48.123-.607.123-.34 0-.983.021-1.008-1.241-.03-1.518.73-1.28 1.069-1.28.122 0 .345.033.545.111a.07.07 0 0 0 .034.006.089.089 0 0 0 .089-.067l.044-.14c0-.005.006-.016.006-.022a.118.118 0 0 0-.073-.1 1.824 1.824 0 0 0-.706-.133c-.74 0-1.406.067-1.403 1.625.004 1.513.662 1.586 1.403 1.586.205 0 .49-.045.706-.145a.118.118 0 0 0 .073-.1c0-.006-.006-.017-.006-.023l-.044-.139c-.017-.044-.05-.066-.09-.066-.01 0-.022 0-.033.005zM-1.15-6.58a.09.09 0 0 0-.095-.095h-.206a.09.09 0 0 0-.094.095v2.971a.09.09 0 0 0 .094.095h.206a.09.09 0 0 0 .095-.095zM1.443-4.02l-.295-.763c.328-.134.495-.417.495-.89 0-.696-.373-1.002-1.085-1.002H-.444a.09.09 0 0 0-.094.095v2.971a.09.09 0 0 0 .094.095h.206a.09.09 0 0 0 .095-.095v-1.074h.701c.072 0 .145-.005.206-.011l.398 1.07c.056.15.042.135.188.136.106.001.355.005.346-.012a6.585 6.585 0 0 1-.253-.52zM-.143-5.029V-6.33h.74c.39 0 .651.228.651.657 0 .434-.256.645-.65.645zM4.042-3.954c-.2.084-.479.123-.607.123-.34 0-.956-.052-1.007-1.241-.061-1.439.729-1.28 1.068-1.28.123 0 .345.033.546.111a.07.07 0 0 0 .033.006.089.089 0 0 0 .09-.067l.044-.14c0-.005.005-.016.005-.022a.118.118 0 0 0-.072-.1 1.824 1.824 0 0 0-.707-.133c-.74 0-1.426.028-1.402 1.625.023 1.528.662 1.586 1.402 1.586.206 0 .49-.045.707-.145a.118.118 0 0 0 .072-.1c0-.006-.005-.017-.005-.023l-.045-.139c-.017-.044-.05-.066-.089-.066-.011 0-.022 0-.033.005zM6.819-3.611c.06.15.046.125.152.125.105 0 .279.004.304-.057a33.32 33.32 0 0 0-.178-.478L6.2-6.564c-.028-.078-.084-.111-.15-.111h-.368c-.067 0-.122.033-.15.111l-1.04 2.955a.09.09 0 0 0 .094.095h.217c.056 0 .095-.045.111-.095l.24-.679h1.424l.24.677zm-.952-2.73c.284.818.456 1.319.595 1.708h-1.19zM8.566-6.33c.373 0 .707.067.707.534 0 .456-.334.545-.707.545h-.518v-1.08zm.178 2.47h-.696v-1.045h.696c.367 0 .695.038.695.517 0 .467-.328.529-.695.529zm-.996-2.815a.09.09 0 0 0-.095.095v2.971a.09.09 0 0 0 .095.095h1.007c.701 0 1.08-.19 1.08-.874 0-.295-.023-.573-.468-.718.3-.228.3-.512.3-.712 0-.69-.445-.857-1.079-.857zM12.205-3.954c-.2.084-.478.123-.606.123-.34 0-1.008-.19-1.008-1.241 0-1.28.73-1.28 1.069-1.28.122 0 .345.033.545.111a.07.07 0 0 0 .034.006.089.089 0 0 0 .089-.067l.044-.14c0-.005.006-.016.006-.022a.118.118 0 0 0-.073-.1 1.824 1.824 0 0 0-.706-.133c-.74 0-1.403.306-1.403 1.625 0 1.19.663 1.586 1.403 1.586.206 0 .49-.045.706-.145a.118.118 0 0 0 .073-.1c0-.006-.006-.017-.006-.023l-.044-.139c-.017-.044-.05-.066-.09-.066-.01 0-.022 0-.033.005zM15.711-6.291c.083 0 .089-.022.095-.067.01-.156.01-.172.01-.178 0-.039-.016-.072-.066-.083a5.114 5.114 0 0 0-.73-.078c-.962 0-1.201.311-1.201.818 0 1.213 1.92.573 1.92 1.463 0 .518-.662.585-.857.585-.145 0-.495-.05-.785-.15-.094 0-.106.022-.122.06l-.05.15c-.006.017-.006.029-.006.04a.1.1 0 0 0 .072.1c.24.089.646.145.846.145.874 0 1.297-.307 1.297-.902 0-1.291-1.92-.668-1.92-1.508 0-.412.273-.456.846-.456.078 0 .356.022.65.06zM18.137-3.609a.09.09 0 0 0 .095.095h.206a.09.09 0 0 0 .094-.095v-1.19c0-.557-.194-1.002-.823-1.002-.084 0-.451 0-.707.222V-6.58a.09.09 0 0 0-.095-.095h-.206a.09.09 0 0 0-.094.095v2.971a.09.09 0 0 0 .094.095h.206a.09.09 0 0 0 .095-.095v-1.564s.284-.283.607-.283c.322 0 .528.055.528.7zM20.536-4.07s-.234.239-.518.239c-.323 0-.645-.1-.645-.724 0-.584.239-.901 1.163-.901zm.395-1.57c0-.045-.034-.072-.09-.09a2 2 0 0 0-.573-.071c-.762 0-1.29.384-1.29 1.213 0 .734.344 1.102.918 1.102.078 0 .417 0 .606-.19l.084.117a.092.092 0 0 0 .083.045h.167a.09.09 0 0 0 .095-.095zM22.344-5.45c.15 0 .312 0 .545.1a.07.07 0 0 0 .034.005.089.089 0 0 0 .089-.067l.044-.139c.006-.011.006-.022.006-.033 0-.045-.028-.073-.072-.09-.24-.11-.468-.122-.68-.122-.222 0-.433.05-.678.14-.056.022-.09.066-.09.11v1.937a.09.09 0 0 0 .095.095h.206a.09.09 0 0 0 .095-.095v-1.714a.846.846 0 0 1 .406-.128zM24.303-5.456c.261 0 .512.055.512.39 0 .272-.195.355-.562.355-.14 0-.445-.055-.601-.183.089-.423.334-.562.65-.562zm.812 1.814c.045-.028.073-.045.073-.09 0-.01 0-.027-.006-.038l-.044-.134c-.017-.044-.05-.067-.09-.067-.01 0-.022 0-.033.006-.256.1-.478.133-.634.133-.44 0-.73-.278-.73-.678.29.122.552.144.719.144.467 0 .84-.194.84-.751 0-.378-.323-.684-.907-.684-.735 0-1.046.45-1.046 1.135 0 .734.361 1.18 1.102 1.18.233 0 .528-.023.756-.156z" style="font-style:normal;font-variant:normal;font-weight:400;font-stretch:normal;font-family:'Mairy Light';-inkscape-font-specification:'Mairy Light, ';fill:#fff;fill-opacity:1;stroke-width:.00194635" transform="matrix(1.75645 0 0 1.80705 8.117 13.54)"/></g></g></svg>