<svg xmlns="http://www.w3.org/2000/svg" width="42" height="42"><path style="color:#000;font-style:normal;font-variant:normal;font-weight:400;font-stretch:normal;font-size:medium;line-height:normal;font-family:sans-serif;font-variant-ligatures:normal;font-variant-position:normal;font-variant-caps:normal;font-variant-numeric:normal;font-variant-alternates:normal;font-variant-east-asian:normal;font-feature-settings:normal;font-variation-settings:normal;text-indent:0;text-align:start;text-decoration:none;text-decoration-line:none;text-decoration-style:solid;text-decoration-color:#000;letter-spacing:normal;word-spacing:normal;text-transform:none;writing-mode:lr-tb;direction:ltr;text-orientation:mixed;dominant-baseline:auto;baseline-shift:baseline;text-anchor:start;white-space:normal;shape-padding:0;shape-margin:0;inline-size:0;clip-rule:nonzero;display:inline;overflow:visible;visibility:visible;isolation:auto;mix-blend-mode:normal;color-interpolation:sRGB;color-interpolation-filters:linearRGB;solid-color:#000;solid-opacity:1;vector-effect:none;fill:#0d3653;fill-opacity:1;fill-rule:nonzero;stroke:none;stroke-width:3.21293;stroke-linecap:round;stroke-linejoin:round;stroke-miterlimit:4;stroke-dasharray:none;stroke-dashoffset:0;stroke-opacity:1;paint-order:stroke fill markers;color-rendering:auto;image-rendering:auto;shape-rendering:auto;text-rendering:auto;enable-background:accumulate;stop-color:#000;stop-opacity:1" d="M8.807 10.797s.359 22.84 1.08 26.084c.431 1.241.964 2.986 3.167 3.052l16.263-.003c1.484.066 2.644-1.23 2.937-2.73.355-7.851.887-20.676.88-26.433-8.157-.039-16.169.069-24.327.03zm6.003 4.713c1.17-.028 1.758 1.186 1.591 2.207-.047 5.055-.051 10.112-.126 15.166-.136 1.418-2.24 1.869-2.94.621-.454-.899-.17-1.945-.238-2.917l.095-13.504c.001-.853.761-1.599 1.618-1.573zm6.212 0c1.06-.027 1.774 1.069 1.593 2.054-.042 5.083-.061 10.167-.116 15.249-.075 1.291-1.865 1.929-2.734.963-.756-.773-.377-1.922-.458-2.883.038-4.65.055-9.3.106-13.95.072-.8.806-1.451 1.61-1.433zm5.868 0c1.059-.025 1.77 1.07 1.589 2.054-.042 5.083-.061 10.167-.116 15.249-.073 1.294-1.864 1.929-2.734.963-.767-.799-.37-1.973-.457-2.96.038-4.624.056-9.248.108-13.872.072-.8.805-1.456 1.61-1.434z"/><path style="color:#000;font-style:normal;font-variant:normal;font-weight:400;font-stretch:normal;font-size:medium;line-height:normal;font-family:sans-serif;font-variant-ligatures:normal;font-variant-position:normal;font-variant-caps:normal;font-variant-numeric:normal;font-variant-alternates:normal;font-variant-east-asian:normal;font-feature-settings:normal;font-variation-settings:normal;text-indent:0;text-align:start;text-decoration:none;text-decoration-line:none;text-decoration-style:solid;text-decoration-color:#000;letter-spacing:normal;word-spacing:normal;text-transform:none;writing-mode:lr-tb;direction:ltr;text-orientation:mixed;dominant-baseline:auto;baseline-shift:baseline;text-anchor:start;white-space:normal;shape-padding:0;shape-margin:0;inline-size:0;clip-rule:nonzero;display:inline;overflow:visible;visibility:visible;opacity:1;isolation:auto;mix-blend-mode:normal;color-interpolation:sRGB;color-interpolation-filters:linearRGB;solid-color:#000;solid-opacity:1;vector-effect:none;fill:#0d3653;fill-opacity:1;fill-rule:nonzero;stroke:none;stroke-width:1.69816px;stroke-linecap:butt;stroke-linejoin:miter;stroke-miterlimit:4;stroke-dasharray:none;stroke-dashoffset:0;stroke-opacity:1;color-rendering:auto;image-rendering:auto;shape-rendering:auto;text-rendering:auto;enable-background:accumulate;stop-color:#000;stop-opacity:1" d="M21.719 1.444c-1.955-.003-4.21-.235-5.758 1.214-.85.992-2.287.799-3.461.875-1.631.065-3.324-.135-4.902.362-1.743 1.432-1.751 2.18-1.735 4.122H36.9c-.087-1.691-.11-2.253-1.15-3.671-.9-.803-2.225-.687-3.35-.81-1.747-.138-3.618.027-5.258-.576-.671-1.056-1.93-1.442-3.119-1.443-.767-.047-1.536-.056-2.304-.073z"/></svg>