<svg xmlns="http://www.w3.org/2000/svg" width="42" height="42" clip-rule="evenodd" fill-rule="evenodd" image-rendering="optimizeQuality" shape-rendering="geometricPrecision" text-rendering="geometricPrecision" viewBox="0 0 91775.338 91775.337" xml:space="preserve"><path d="M46455.413 8539.18c2156.201 0 4219.675 467.526 6121.188 1321.153 6464.943 2902.236 11057.764 10267.515 11057.764 18895.799 0 5811.185-2084.181 11049.316-5420.024 14736.837 4738.346 571.851 20282.196 8625.884 20282.196 18175.154v11194.989c0 4228.066-3307.055 7685.642-7351.059 7685.642H21606.441c-4044.001 0-7351.056-3459.985-7351.056-7685.642V61668.123c0-8663.204 15876.625-17723.693 20429.584-18189.6-3328.935-3686.317-5407.358-8918.43-5407.358-14723.596 0-11166.095 7691.898-20216.954 17178.953-20216.954z" style="stroke:#0d3653;stroke-width:5899.843125;stroke-miterlimit:22.92560005;stroke-dasharray:none;stroke-opacity:1;fill:none;stroke-linecap:round;stroke-linejoin:round"/></svg>