<svg xmlns="http://www.w3.org/2000/svg" width="42" height="42"><g style="display:inline;fill:#fff"><g style="fill:#fff"><path d="M423.129 198.24C429.25 95.057 356.372 14.505 253.453 15.341c-102.919.836-171.499 92.104-167.703 183.732-19.428.064-34.737 21.253-35.285 37.34v232.897c0 16.738 14.814 30.426 33.022 30.354l339.336-1.342c18.205-.072 33.019-13.616 33.019-30.354V236.414c0-29.625-13.441-36.9-32.713-38.175zm-90.261.278c.775-57.486-25.667-91.71-74.4-91.853-48.732-.144-74.868 48.596-74.868 92.639m-56.978-1.179c-8.181-67.684 40.158-150.04 130.161-149.901 90.004.138 137.73 82.385 128.954 148.674M219.9 198.632c1.328-38.568 13.708-57.988 39.812-58.12 30.125-.847 42.277 19.3 44.859 57.785m121.076 258.611c.072 5.818-5.15 10.597-11.48 10.554l-316.103-2.176c-6.332-.043-11.49-4.735-11.482-10.553l.278-206.262c.008-5.82 5.15-10.579 11.482-10.554l313.257 1.227c6.33.025 11.407 4.734 11.48 10.554z" style="fill:#fff;stroke-width:23.2246;stroke-miterlimit:22.9256;stroke-dasharray:none" transform="translate(1.774 1.377) scale(.07634)"/><path d="M231.847 292.522c-.107 19.677-.293 110.15-.376 126.995-.084 16.844 45.227 17.518 45.166.231-.06-17.286.145-107.33-.057-127.727-.202-20.398-44.626-19.175-44.733.501z" style="fill:#fff;stroke-width:.858927" transform="translate(1.774 1.377) scale(.07634)"/></g></g></svg>