<svg xmlns="http://www.w3.org/2000/svg" width="42" height="42" clip-rule="evenodd" fill-rule="evenodd" image-rendering="optimizeQuality" shape-rendering="geometricPrecision" text-rendering="geometricPrecision" viewBox="0 0 91775.337 91775.337" xml:space="preserve"><path style="display:inline;fill:none;stroke:#777;stroke-width:5899.84;stroke-linecap:butt;stroke-linejoin:round;stroke-miterlimit:4;stroke-dasharray:none;stroke-opacity:1" d="m33912.106 53610.227-8506.007 111.923L13654.38 63961.285l335.763-10574.9s-2821.324 9.616-4029.161-447.684S7913.73 52090.073 6939.11 50812.2c-974.619-1277.873-1692.155-2862.088-2014.58-5596.058-322.426-2733.97-333.356-18279.147 0-20929.254 333.355-2650.107 1345.36-3728.331 2909.95-4924.53 1564.589-1196.2 3456.939-1914.636 6155.662-1790.738 2698.723 123.898 33089.38 73.243 36150.529 111.921 3061.149 38.678 3728.242 1228.008 4924.531 2462.265 1196.289 1234.257 1630.537 2788.184 2014.58 4364.924 384.043 1576.74 368.544 4445.231 368.544 4445.231s16368.684-128.522 20224.948 31.616c3856.263 160.138 5442.409 927.307 6827.189 2462.265 1384.78 1534.958 1737.497 3301.314 1678.816 6043.742-58.681 2742.428-31.875 16193.446 0 18466.988 31.875 2273.542-154.842 3868.538-1119.211 5260.293-964.369 1391.755-2768.919 2110.167-4029.16 2574.187s-3245.714 447.685-3245.714 447.685l-111.922 10304.7-11751.718-9908.999s-22218.982 342.75-24286.888-59.937c-2067.906-402.687-3991.556-882.737-5176.354-2014.583-1184.797-1131.846-1888.909-1688.812-2210.443-4700.686-321.533-3011.875-335.764-4253.005-335.764-4253.005z"/><path style="display:inline;fill:none;stroke:#777;stroke-width:5899.84;stroke-linecap:butt;stroke-linejoin:miter;stroke-miterlimit:4;stroke-dasharray:none;stroke-opacity:1" d="M33912.106 53610.227s185.352-5836.877 139.365-10966.511c-26.417-2946.785-188.494-6500.421 308.32-7836.241 757.511-2036.779 1032.38-2870.841 2462.266-4029.161 1429.886-1158.32 2670.523-1910.389 5372.214-1790.737 5456.803 99.09 15254.056-31.616 15254.056-31.616"/></svg>