<svg xmlns="http://www.w3.org/2000/svg" width="42" height="42" viewBox="0 0 11.113 11.113"><g style="fill:#777;fill-opacity:1"><path d="M-35.911 29.342c-1.493-.486-2.703-1.47-3.517-2.859-.558-.95-.69-1.49-.694-2.839-.007-2.008.603-3.337 2.132-4.646 1.842-1.576 4.757-1.873 6.766-.688.49.289.913.492.94.452.028-.04.194-.43.367-.867 1.297-3.263 5.74-3.264 6.986 0 1.043 2.73-1.336 5.417-4.303 4.86-.882-.165-.886-.161-.886.766 0 3.096-2.443 5.778-5.523 6.064-.652.06-1.672-.048-2.268-.242zm15.173-12.444c-2.154-.906-1.513-4.158.82-4.158 1.29 0 2.227.89 2.227 2.117 0 1.709-1.48 2.7-3.047 2.041zM-47.177 7.06c-4.683-1.67-6.275-7.494-3.072-11.236 3.147-3.677 9.337-2.962 11.55 1.334l.514.998.504-.69c.72-.99 2.237-1.687 3.67-1.687 3.572 0 5.637 3.745 3.797 6.886-1.528 2.607-5.042 2.98-7.14.758l-.738-.782-.723 1.267c-.74 1.295-2.355 2.642-3.814 3.18-1.093.403-3.38.388-4.548-.029zm21.668-4.18c-.998-.608-1.345-1.231-1.345-2.413 0-2.798 3.134-4.123 5.1-2.157.596.595.722.937.722 1.95 0 1.389-.437 2.175-1.522 2.736-.991.513-1.988.474-2.955-.116zm2.426-12.738c-3.088-2.062-1.653-6.863 2.051-6.863s5.139 4.8 2.051 6.863c-.59.394-1.234.575-2.05.575-.818 0-1.462-.18-2.052-.575zm-10.732-5.98c-1.744-.808-3.164-2.804-3.164-4.449 0-.788-.039-.789-1.208-.018-1.36.897-3.862 1.48-5.46 1.273-2.912-.378-5.744-2.306-7.007-4.877-.617-1.256-.806-2.467-.817-3.875-.01-1.236.191-2.511.866-3.844.941-1.857 2.765-3.518 4.641-4.225 1.182-.446 1.907-.546 3.669-.46 2.194.108 3.414.536 5.122 1.8 1.977 1.46 3.435 5.08 3.107 7.71-.161 1.285-.14 1.375.292 1.19.256-.11 1.149-.249 1.984-.308 1.254-.09 1.718-.003 2.658.5 3.213 1.716 3.759 6.22 1.057 8.723-1.48 1.372-3.862 1.728-5.74.859zm22.68-6.309c-1.236-.455-2.014-1.078-2.538-2.16-.882-1.823-.63-3.66.694-5.06.995-1.05 1.885-1.433 3.338-1.433 3.44 0 5.448 3.388 4.051 6.454-.562 1.233-1.357 1.776-2.664 2.246-1.169.306-2.034.232-2.88-.047zm15.882-4.636c-1.336-.374-2.882-1.801-3.388-3.127-1.353-3.542 1.127-7.218 4.87-7.218 1.763 0 3.074.655 3.982 1.672.808.904 1.458 1.936 1.405 3.77-.045 1.544-.534 2.505-1.722 3.693-1.183 1.183-3.386 1.704-5.147 1.21zm-24.976-7.015c-1.527-.545-3.102-1.94-3.813-3.49-.577-1.257-.86-3.882-.443-5.22l.217-.696h-1.753c-2.236 0-3.892-.496-5.827-1.747-4.802-3.104-6.276-9.683-3.287-14.672 1.056-1.762 2.687-3.203 4.737-4.184 1.546-.74 3.25-1.072 4.556-1.087 1.42-.016 3.005.345 4.626 1.112 5.603 2.654 7.813 9.3 4.932 14.827-.452.866-.86 1.66-.907 1.764-.047.104.18.192.505.195 1.69.016 4.191 1.985 5.084 4.005 1.033 2.334.469 5.624-1.28 7.468-1.773 1.87-4.89 2.6-7.347 1.724zm23.68-8.908c-4.263-1.07-7.339-5.425-6.929-9.81.177-1.897 1.007-3.855 2.217-5.233.527-.6.743-1.02.557-1.081-.887-.296-3.387-2.165-4.392-3.284-2.338-2.603-3.532-5.751-3.532-9.314 0-6.297 3.98-11.57 10.108-13.388 1.72-.51 5.481-.531 7.325-.041 3.14.835 6.361 3.198 8.139 5.968 2.529 3.94 2.801 9.147.712 13.598-.833 1.775-3.003 4.26-4.748 5.44-.637.43-1.33.967-1.367.994-.038.026.478.328.975.87s1.21 1.613 1.587 2.379c.605 1.231.894 2.363.895 3.9 0 1.79-.662 4.263-2.608 6.321-1.696 1.793-3.773 2.746-6.208 2.847-.975.041-2.204-.033-2.73-.166z" fill="#0d3653" opacity=".989" style="fill:#0d3653;fill-opacity:1" transform="matrix(.08994 0 0 .08994 5.165 7.779)"/></g><path class="fil0" style="display:inline;fill:none;stroke-width:1.48465" d="M4.796 3.93h7.001v6.915H4.796z"/><path class="fil1" d="m6.555 6.35 1.351-.813v-.022c.109-1.79 2.649-1.881 2.823.008-.053 1.071-1.124 1.708-2.024 1.26l-1.291.785 1.309.806c.962-.416 1.98.254 1.996 1.3-.048.797-.645 1.373-1.412 1.385a1.43 1.43 0 0 1-1.4-1.431v-.03l-1.344-.816c-.948.55-2.106-.151-2.122-1.19 0-.386.153-.764.41-1.018a1.437 1.437 0 0 1 1.704-.223zm1.684-.52L6.512 6.873l-.151-.103c-.4-.256-.869-.164-1.203.13-.18.177-.285.453-.285.724.042.76.846 1.186 1.516.782l.168-.126 1.82 1.11c-.028.057-.031.244-.043.302.065.597.51.913.942.938.553.027 1.02-.411 1.014-1.006a.977.977 0 0 0-1.453-.813l-.102.051L6.82 7.708c.001-.106-.004-.18-.008-.286l1.892-1.131.12.084c.914.473 1.897-.475 1.268-1.448-.662-.754-1.784-.254-1.758.645l.005.055.015.133-.115.07z" style="display:inline;fill:#0d3653;fill-opacity:1;stroke-width:1.48465"/></svg>