<svg xmlns="http://www.w3.org/2000/svg" width="42" height="42" clip-rule="evenodd" fill-rule="evenodd" image-rendering="optimizeQuality" shape-rendering="geometricPrecision" text-rendering="geometricPrecision" viewBox="0 0 91953.507 91953.507" xml:space="preserve"><path style="fill:none;stroke:#777;stroke-width:5911.29687857;stroke-linecap:butt;stroke-linejoin:round;stroke-opacity:1;stroke-miterlimit:4;stroke-dasharray:none" d="m36220.709 68180.16 19175.672 56.07 112.139 19399.948H36276.779z"/><path style="fill:none;stroke:#777;stroke-width:5911.3;stroke-linecap:butt;stroke-linejoin:round;stroke-miterlimit:4;stroke-dasharray:none;stroke-opacity:1" d="M36220.71 59657.641c6415.665 26.431 13624.268-264.313 20039.933-237.882 1748.466-3586.712 2388.079-5590.74 4882.839-9038.914 2494.76-3448.174 6253.031-6127.651 9097.535-9387.562s6025.38-8785.461 4405.616-17181.049C73026.869 15416.646 64120.741 6590.684 55596.11 5177.111 47071.479 3763.54 40176.487 4487.166 33083.428 7865.85c-7093.059 3378.683-13204.982 8909.399-17086.184 15790.827-1072.208 2412.229 12805.429 7762.836 17162.884 9681.28 3723.322-4533.11 8796.092-8602.089 14849.274-9065.741 2925.373-124.347 7147.532 1026.795 7065.644 4621.872-173.657 3463.794-2617.206 4125.125-5883.098 7483.545S39077.151 46514.127 37790.754 51339.458c-1286.397 4825.331-1247.528 4954.22-1570.044 8318.183z"/></svg>