<svg xmlns="http://www.w3.org/2000/svg" width="42" height="42"><path style="display:inline;fill:#0d3653;fill-opacity:1;stroke:none;stroke-width:0;stroke-linecap:butt;stroke-linejoin:miter;stroke-miterlimit:4;stroke-dasharray:none;stroke-opacity:1" d="m21.431 3.445.127 35.66L8.573 27h-7.09l.102-12.025h7.09z"/><path style="opacity:1;fill:#0d3653;fill-opacity:1;stroke:none;stroke-width:0;stroke-linecap:butt;stroke-linejoin:round;stroke-miterlimit:4;stroke-dasharray:none;stroke-opacity:1" d="M25.292 2.225V7.06A14.263 14.263 0 0 1 36.46 20.986 14.263 14.263 0 0 1 25.29 34.91v4.84a19.017 19.017 0 0 0 15.924-18.765A19.017 19.017 0 0 0 25.292 2.225z"/><path style="display:inline;opacity:1;fill:#0d3653;fill-opacity:1;stroke:none;stroke-width:0;stroke-linecap:butt;stroke-linejoin:round;stroke-miterlimit:4;stroke-dasharray:none;stroke-opacity:1" d="M25.292 11.993v17.985a9.509 9.509 0 0 0 6.414-8.992 9.509 9.509 0 0 0-6.414-8.993z"/></svg>