<svg xmlns="http://www.w3.org/2000/svg" width="42.667" height="42.667" clip-rule="evenodd" fill-rule="evenodd" image-rendering="optimizeQuality" shape-rendering="geometricPrecision" text-rendering="geometricPrecision" viewBox="0 0 93233 93233" xml:space="preserve"><path d="M80688.053 89026.492c5678.422 0 8390.44-4763.32 8390.44-10586.513V30789.98c0-4909.931-3301.616-9065.428-7741-10250.531-786.311-10189.442-7502.723-18150.708-15675.597-18150.708-8082.033 0-14740.365 7785.638-15647.304 17813.198h-5082.73c-906.938-10027.56-7565.27-17813.198-15647.303-17813.198-8172.874 0-14889.286 7961.266-15675.598 18150.708-4437.895 1185.103-7739.51 5340.6-7739.51 10250.531v47649.999c0 5821.666 2836.757 10118.893 8504.137 10472.814 22094.408 272.513 44213.046 113.699 66314.465 113.699zM14420.055 40552.695l65316.674 194.096c3599.049 10.695 3151.526 4019.462 3179.498 7127.178l274.492 30496.811c27.972 3107.716-309.731 4208.254-3340.291 4218.104l-62506.279 203.157c-3030.56 9.85-5488.045-1745.427-5508.648-4853.201l-195.323-29463.075c-20.602-3107.774-250.685-7932.076 2779.877-7923.07zm24018.378-18920.684c62.808-5274.392-1504.94-13723.951-8926.476-13872.778-6212.636-124.585-9297.182 8210.477-9267.573 14896.066 34.257 7735.203 4303.901 12407.06 9179.095 12314.299 5915.833-112.562 8945.396-7496.302 9014.954-13337.587zm36932.036-2.367c-62.792-5841.423-2406.955-12980.937-9367.477-12960.82-6553.441 18.939-9441.843 6833.316-9494.97 13645.379-50.869 6522.429 4182.165 12762.176 9569.653 12816.188 5670.516 56.849 9355.601-7657.943 9292.794-13500.747z" style="display:inline;fill:#777;fill-opacity:1;stroke-width:1.50809"/><g aria-label="31" style="font-style:normal;font-weight:400;font-size:42086.3px;line-height:1.25;font-family:sans-serif;display:inline;fill:#777;fill-opacity:1;stroke:none;stroke-width:1052.16"><path style="font-style:normal;font-variant:normal;font-weight:700;font-stretch:normal;font-family:Arial;-inkscape-font-specification:'Arial Bold';display:inline;fill:#777;fill-opacity:1;stroke-width:1052.16" d="m23384.274 73346.936 5589.587-678.148c137.449 2025.304 1525.667 4124.031 3667.524 4357.954 2258.315 413.233 4406.429-1431.283 4719.746-3628.27 427.547-2076.809-132.797-4646.766-2174.201-5669.54-1371.466-706.334-2971.602-343.6-4384.123 28.417l637.048-4705.939c1808.722 132.447 3942.974-588.706 4572.686-2453.311 624.067-1646.028 80.182-3909.458-1721.38-4533.672-1805.932-712.585-4045.7 221.871-4721.352 2065.27-334.172 1607.384-1488.829 1576.462-1202.75 1605.456l-4551.236-773.183c484.684-2577.292 1648.285-5259.72 4070.978-6553.267 2977.287-1665.491 6821.458-1787 9876.659-257.757 2719.538 1423.901 4722.91 4498.029 4212.419 7633.664-305.571 2420.897-2195.123 4274.657-4268.289 5362.895 3024.845 535.4 5458.077 3250.97 5654.207 6316.843 356.034 3229.923-1184.915 6502.12-3799.513 8400.616-3109.69 2348.448-7545.543 2577.325-11038.515 980.737-2900.937-1368.484-4855.226-4322.223-5139.495-7498.765zM61771.583 81340.867h-5774.536V59578.468c-2118.791 1992.156-4698.993 3474.58-7459.633 4377.14v-5240.237c3089.919-1163.254 6951.171-4835.356 8741.151-7655.497 0 0 1803.703 62.872 4493.018 31.465z" transform="scale(1.10492 .90505)"/></g></svg>