<svg xmlns="http://www.w3.org/2000/svg" width="42" height="42" clip-rule="evenodd" fill-rule="evenodd" image-rendering="optimizeQuality" shape-rendering="geometricPrecision" text-rendering="geometricPrecision" viewBox="0 0 91775.338 91775.337" xml:space="preserve"><ellipse style="display:inline;opacity:1;fill:none;fill-opacity:1;stroke:#777;stroke-width:5899.843125;stroke-miterlimit:4;stroke-dasharray:none;stroke-opacity:1" cx="46624.77" cy="46494.207" rx="10131.143" ry="10111.081"/><path style="fill:none;stroke:#777;stroke-width:5899.843125;stroke-linecap:round;stroke-linejoin:round;stroke-opacity:1;stroke-miterlimit:17.20000076;stroke-dasharray:none" d="M4970.607 41907.547 16916.8 39085.658l3584.488-8630.259-6340.818-9925.306 5838.82-6583.862 10149.149 6379.222 9579.941-3706.011 2215.925-12029.31h9496.824l1974.528 11834.272 8975.624 3901.049 9877.3-6583.862 6825.258 6284.857-6778.899 10179.599 3733.166 8777.29 11955.796 2960.969-92.72 9162.708-11186.408 2050.855-4074.071 8729.768 6686.181 10280.271-7619.956 6499.097-8721.33-6174.581-9496.824 3323.886-2318.245 11975-9125.951-215.89-2586.798-11209.104-8603.103-4665.295-10112.39 7077.905-6823.613-6603.063 6647.777-10214.711-3957.01-8778.939L5343.128 50873.57z"/></svg>