<svg xmlns="http://www.w3.org/2000/svg" xmlns:xlink="http://www.w3.org/1999/xlink" width="42" height="21"><defs><linearGradient xlink:href="#a" id="c" x1="152.934" y1="-198.974" x2="155.051" y2="-282.057" gradientUnits="userSpaceOnUse" gradientTransform="matrix(.19117 0 0 .21942 -7.04 63.279)"/><linearGradient id="a"><stop style="stop-color:#6ec37a;stop-opacity:1" offset="0"/><stop style="stop-color:#6ec37a;stop-opacity:0" offset="1"/></linearGradient><linearGradient xlink:href="#b" id="d" x1="-144.997" y1="283.115" x2="-144.997" y2="199.504" gradientUnits="userSpaceOnUse" gradientTransform="matrix(.19117 0 0 .21942 7.04 -63.279)"/><linearGradient id="b"><stop style="stop-color:#8fc96a;stop-opacity:1" offset="0"/><stop style="stop-color:#8fc96a;stop-opacity:0" offset="1"/></linearGradient></defs><path style="font-style:normal;font-weight:400;font-size:4.26008px;line-height:1.25;font-family:sans-serif;display:inline;opacity:1;fill:url(#c);fill-opacity:1;stroke:#000;stroke-width:.05;stroke-linecap:butt;stroke-linejoin:bevel;stroke-miterlimit:4;stroke-dasharray:none;stroke-opacity:1;paint-order:stroke fill markers" d="M5.702 1.272h30.551c2.802 0 5.058 2.59 5.058 5.806v7.083c0 3.217-2.256 5.806-5.058 5.806H5.702c-2.803 0-5.058-2.59-5.058-5.806V7.078c0-3.216 2.255-5.806 5.058-5.806z"/><rect style="font-style:normal;font-weight:400;font-size:4.26008px;line-height:1.25;font-family:sans-serif;display:inline;opacity:1;fill:url(#d);fill-opacity:1;stroke:#000;stroke-width:.05;stroke-linecap:butt;stroke-linejoin:bevel;stroke-miterlimit:4;stroke-dasharray:none;stroke-opacity:1;paint-order:stroke fill markers" width="40.668" height="18.695" x="-41.311" y="-19.967" rx="5.058" transform="scale(-1)" ry="5.806"/><g aria-label="New" style="font-style:normal;font-weight:400;font-size:9.12257px;line-height:1.25;font-family:sans-serif;display:inline;fill:#fff;fill-opacity:1;stroke:#000;stroke-width:.07228432;stroke-miterlimit:4;stroke-dasharray:none;stroke-opacity:.984314"><path d="M13.904 27.049h-1.648L9.44 22.496v4.553H7.872v-6.633h2.045l2.419 3.8v-3.8h1.568zM20.434 24.844h-3.67q.035.588.445.9.414.311 1.216.311.508 0 .984-.182.477-.183.753-.392h.178v1.287q-.543.218-1.024.316t-1.065.098q-1.505 0-2.307-.677t-.802-1.929q0-1.238.757-1.96.762-.726 2.085-.726 1.22 0 1.835.62.615.614.615 1.772zm-1.595-.94q-.013-.503-.25-.757-.235-.254-.734-.254-.464 0-.762.24t-.334.77zM29.543 22.046l-1.55 5.003H26.29l-1.02-3.372-1.002 3.372h-1.724l-1.537-5.003h1.684l.855 3.448 1.07-3.448h1.42l1.016 3.448.842-3.448z" style="font-style:normal;font-variant:normal;font-weight:700;font-stretch:normal;font-size:9.12257px;font-family:sans-serif;-inkscape-font-specification:'sans-serif Bold';fill:#fff;fill-opacity:1;stroke:#000;stroke-width:.07228432;stroke-miterlimit:4;stroke-dasharray:none;stroke-opacity:.984314" transform="matrix(1.17999 0 0 1.03804 -.62 -14.53)"/></g></svg>