<svg xmlns="http://www.w3.org/2000/svg" width="42" height="22"><path style="fill:none;stroke:#0d3653;stroke-width:2.12498;stroke-linecap:butt;stroke-linejoin:round;stroke-miterlimit:4;stroke-dasharray:none;stroke-opacity:1;paint-order:fill markers stroke" d="M15.92 3.062v14.47h11.224-11.225V3.061h22.45v7.235-7.235h-22.45z"/><path style="fill:none;stroke:#0d3653;stroke-width:2.12498;stroke-linecap:butt;stroke-linejoin:miter;stroke-miterlimit:4;stroke-dasharray:none;stroke-opacity:1" d="M15.875 4.333c3.486 2.23 6.905 4.571 10.43 6.737 1.44.79 3.165.172 4.262-.914L38.4 3.71"/><path style="fill:none;stroke:#0d3653;stroke-width:2;stroke-linecap:round;stroke-linejoin:round;stroke-miterlimit:4;stroke-dasharray:none;stroke-opacity:1" d="m20.939 12.148-4.747 3.371 4.747-3.37zm-9.391 1.85H5.22zm0 3.002H2.627h8.92zm-.046-6.006H7.94h3.563zm0-3.004c-.618 0-2.11.002-.686 0z"/><path style="fill:none;stroke:#0d3653;stroke-width:2.00029;stroke-linecap:round;stroke-linejoin:round;stroke-miterlimit:4;stroke-dasharray:none;stroke-opacity:1;paint-order:fill markers stroke" d="M38.231 15.754c.084 2.454-2.454 4.504-4.834 3.912-2.417-.43-3.894-3.34-2.817-5.545.925-2.273 4.078-3.112 6.01-1.597a4.009 4.009 0 0 1 1.641 3.23z"/><path style="fill:none;stroke:#0d3653;stroke-width:1.52028;stroke-linecap:round;stroke-linejoin:round;stroke-miterlimit:4;stroke-dasharray:none;stroke-opacity:1" d="m36.83 13.958-4.747 3.37z"/></svg>