<svg xmlns="http://www.w3.org/2000/svg" width="42" height="42" clip-rule="evenodd" fill-rule="evenodd" image-rendering="optimizeQuality" shape-rendering="geometricPrecision" text-rendering="geometricPrecision" viewBox="0 0 91953.507 91953.507" xml:space="preserve"><path style="display:inline;fill:#0d3653;fill-opacity:1;stroke:#0d3653;stroke-width:2189.37;stroke-linecap:butt;stroke-linejoin:miter;stroke-miterlimit:4;stroke-dasharray:none;stroke-opacity:1" d="m12528.426 18792.641 67875.526 158.587s-183.443-5333.341-675.991-6446.025c-492.548-1112.683-915.518-1462.708-1883.811-2052.021-968.294-589.312-1758.446-887.615-3825.344-1278.322-2066.898-390.707-12662.187-680.458-13844.403-1162.198-1182.215-481.74-1406.114-607.035-2029.62-1404.89-623.505-797.855-1234.54-1227.939-2410.836-1846.158-1176.296-618.218-15444.838-599.02-16879.966-3.984-1435.128 595.036-1655.963 1091.48-2854.578 1665.17-1198.615 573.692-1996.211 1223.613-4361.162 1665.171s-13995.768 843.34-14649.537 1010.997c-653.769 167.657-1356.785 452.755-2002.169 1010.996s-1089.712 980.827-1724.641 2398.64c-634.929 1417.812-733.468 6284.037-733.468 6284.037zM20113.426 24028.367l53364.751-79.294s-1722.38 56042.282-2061.64 57512.907c-339.25 1470.625-484.399 2773.686-1506.579 3806.104-1022.18 1032.418-2599.81 1586.73-4281.87 1744.466-1682.06 157.736-35510.382 232.471-37089.692-302.403-1579.309-534.875-2507.832-1037.295-3429.459-1803.936-921.626-766.641-1971.581-2508.392-2319.343-3786.281-347.763-1277.89-2676.168-57091.563-2676.168-57091.563z"/><path style="fill:none;stroke:#fff;stroke-width:6266.03;stroke-linecap:round;stroke-linejoin:round;stroke-miterlimit:4;stroke-dasharray:none;stroke-opacity:1" d="m29309.976 38028.162 374.664 34162.112z"/><path style="fill:none;stroke:#fff;stroke-width:6266.04;stroke-linecap:round;stroke-linejoin:round;stroke-miterlimit:4;stroke-dasharray:none;stroke-opacity:1" d="m46358.15 38028.158 374.665 34162.111zM63406.331 38028.157l374.664 34162.112z"/></svg>