<svg xmlns="http://www.w3.org/2000/svg" width="42" height="42" clip-rule="evenodd" fill-rule="evenodd" image-rendering="optimizeQuality" shape-rendering="geometricPrecision" text-rendering="geometricPrecision" version="1.1" viewBox="0 0 91775.338 91775.337" xml:space="preserve" id="svg10"><defs id="defs4"><style type="text/css" id="style2">.str0{stroke:#0d3653;stroke-width:4371;stroke-linecap:round;stroke-linejoin:round;stroke-miterlimit:22.9256}.fil0{fill:none}</style></defs><path class="fil0 str0" d="M45613.629 16981.775c1742.076 0 3409.234 377.732 4945.539 1067.409 5223.27 2344.826 8933.983 8295.512 8933.983 15266.627 0 4695.075-1683.888 8927.159-4379.041 11906.446 3828.288 462.019 16386.749 6969.176 16386.749 14684.391v9044.853c0 3416.014-2671.894 6209.519-5939.197 6209.519H25537.209c-3267.301 0-5939.195-2795.452-5939.195-6209.519v-9044.853c0-6999.329 12827.323-14319.639 16505.83-14696.063-2689.571-2978.314-4368.808-7205.535-4368.808-11895.747 0-9021.509 6214.574-16334.038 13879.523-16334.038z" id="path6" style="stroke:#777;stroke-width:6078.2;stroke-miterlimit:22.9256;stroke-dasharray:none;stroke-opacity:1"/><path class="fil0 str0" d="M26618.249 21977.402c2684.918 0 5155.861 1072.857 7123.5 2872.295-1273.617 2469.607-2007.643 5367.189-2007.643 8467.087 0 4320.599 1425.259 8248.236 3752.932 11169.163-272.585 379.34-562.847 740.201-868.923 1081.608-4815.364 1598.095-15020.101 8096.501-15020.101 14340.066v9044.851c0 600.139 82.798 1181.793 237.233 1731.352H9810.992c-2734.226 0-4971.659-2340.242-4971.659-5197.945v-7573.205c0-5859.359 10738.746-11988.15 13818.122-12302.322-2251.388-2493.924-3657.109-6032.495-3657.109-9958.189 0-7551.806 5202.378-13673.786 11619.762-13673.786zm38494.067 0c6416.453 0 11618.831 6121.983 11618.831 13673.787 0 3930.557-1409.442 7473.993-3665.481 9967.917 3204.971 386.15 13717.645 5834.071 13717.645 12292.596v7573.204c0 2858.676-2236.501 5197.946-4971.658 5197.946H71262.696c154.434-549.559 236.303-1131.215 236.303-1731.351v-9044.853c0-6774.643-9684.687-12619.415-14636.809-14254.471 102.337-18.482 198.16-34.043 287.471-42.797-411.202-455.21-794.497-946.408-1145.23-1467.758 2169.519-2881.048 3487.79-6672.513 3487.79-10825.811 0-2964.696-671.695-5745.558-1844.836-8142.215 2018.806-1994.946 4622.787-3196.194 7464.931-3196.194z" id="path8" style="stroke:#777;stroke-width:6078.2;stroke-miterlimit:22.9256;stroke-dasharray:none;stroke-opacity:1"/></svg>