<svg xmlns="http://www.w3.org/2000/svg" width="42" height="42" clip-rule="evenodd" fill-rule="evenodd" image-rendering="optimizeQuality" shape-rendering="geometricPrecision" text-rendering="geometricPrecision" viewBox="0 0 91775.337 91775.337" xml:space="preserve"><path style="display:inline;fill:none;stroke:#0d3653;stroke-width:5899.84;stroke-linecap:square;stroke-linejoin:round;stroke-miterlimit:1.6;stroke-dasharray:none;stroke-opacity:1;paint-order:fill markers stroke" d="M32205.308 19054.575c2266.678 4517.765 4318.764 7853.804 6407.486 11723.74 6005.962 64.618 38110.897 125.5 40130.836 125.5 2019.938 0 4763.159 662.802 5972.721 1945.724 1209.561 1282.922 1455.104 2801.859 1573.915 5313.742 118.81 2511.883 309.447 23210.203 312.998 24656.274 7.102 2892.143-868.291 4491.358-1946.849 5608.292-1078.557 1116.935-2115.331 1733.256-5545.241 1839.644-3429.909 106.387-60694.083 19.4-63114.602 46.278-4841.038 53.756-6814.409-772.978-7690.213-1817.207-1751.607-2088.458-2107.51-3167.366-2252.484-7379.539-144.974-4212.174-50.433-32759.312 34.823-35393.54 85.256-2634.228 646.698-3684.29 2125.084-4982.383 1482.496-1301.7 2366.317-1445.18 4423.598-1502.751 2057.282-57.57 14727.063-448.536 19567.928-183.774z"/></svg>