<svg xmlns="http://www.w3.org/2000/svg" width="24" height="24"><path style="display:inline;fill:#89a2b2;fill-opacity:1;stroke:none;stroke-width:.918258;stroke-linecap:butt;stroke-linejoin:miter;stroke-miterlimit:4;stroke-dasharray:none;stroke-opacity:1" d="M20.017 20.05c0-1.168-.89-1.83-1.855-2.763-.966-.933-.149-5.237-.435-7.615-.285-2.377-2.277-3.6-3.544-4.758s-.543-3.347-2.473-3.37c-1.93-.022-1.128 2.863-2.378 3.691-1.25.829-3.278 2.292-3.686 4.71-.322 2.704.774 6.365-.32 7.298-1.094.933-1.895 1.517-1.909 2.775"/><path style="display:inline;fill:#89a2b2;fill-opacity:1;stroke:none;stroke-width:.712731px;stroke-linecap:butt;stroke-linejoin:miter;stroke-opacity:1" d="M13.41 21.45s-.344 1.66-1.6 1.681c-1.254.022-1.736-1.66-1.736-1.66z"/></svg>