<svg xmlns="http://www.w3.org/2000/svg" width="24" height="24"><path style="color:#000;font-style:normal;font-variant:normal;font-weight:400;font-stretch:normal;font-size:medium;line-height:normal;font-family:sans-serif;font-variant-ligatures:normal;font-variant-position:normal;font-variant-caps:normal;font-variant-numeric:normal;font-variant-alternates:normal;font-variant-east-asian:normal;font-feature-settings:normal;font-variation-settings:normal;text-indent:0;text-align:start;text-decoration:none;text-decoration-line:none;text-decoration-style:solid;text-decoration-color:#000;letter-spacing:normal;word-spacing:normal;text-transform:none;writing-mode:lr-tb;direction:ltr;text-orientation:mixed;dominant-baseline:auto;baseline-shift:baseline;text-anchor:start;white-space:normal;shape-padding:0;shape-margin:0;inline-size:0;clip-rule:nonzero;display:inline;overflow:visible;visibility:visible;isolation:auto;mix-blend-mode:normal;color-interpolation:sRGB;color-interpolation-filters:linearRGB;solid-color:#000;solid-opacity:1;vector-effect:none;fill:#fff;fill-opacity:1;fill-rule:nonzero;stroke:none;stroke-width:1.59147;stroke-linecap:round;stroke-linejoin:miter;stroke-miterlimit:4;stroke-dasharray:none;stroke-dashoffset:0;stroke-opacity:1;color-rendering:auto;image-rendering:auto;shape-rendering:auto;text-rendering:auto;enable-background:accumulate;stop-color:#000;stop-opacity:1;opacity:1" d="M18.813 2.725a.796.796 0 0 0-.708.435.796.796 0 0 0 .35 1.069s.564.272 1.248 1.136c.684.864 1.427 2.276 1.57 4.541a.796.796 0 0 0 .846.744.796.796 0 0 0 .744-.845c-.163-2.576-1.048-4.332-1.914-5.426-.866-1.094-1.775-1.568-1.775-1.568a.796.796 0 0 0-.361-.086zm-13.436.004a.796.796 0 0 0-.338.082s-.989.493-1.951 1.617C2.125 5.55 1.135 7.352.97 9.948a.796.796 0 0 0 .742.845.796.796 0 0 0 .846-.744c.142-2.245.964-3.683 1.738-4.586.774-.904 1.445-1.225 1.445-1.225a.796.796 0 0 0 .362-1.066.796.796 0 0 0-.727-.443z"/><path style="display:inline;fill:#fff;fill-opacity:1;stroke:none;stroke-width:.918258;stroke-linecap:butt;stroke-linejoin:miter;stroke-miterlimit:4;stroke-dasharray:none;stroke-opacity:1" d="M20.017 20.05c0-1.168-.89-1.83-1.855-2.763-.966-.933-.149-5.237-.435-7.615-.285-2.377-2.277-3.6-3.544-4.758s-.543-3.347-2.473-3.37c-1.93-.022-1.128 2.863-2.378 3.691-1.25.829-3.278 2.292-3.686 4.71-.322 2.704.774 6.365-.32 7.298-1.094.933-1.895 1.517-1.909 2.775"/><path style="display:inline;fill:#fff;fill-opacity:1;stroke:none;stroke-width:.712731px;stroke-linecap:butt;stroke-linejoin:miter;stroke-opacity:1" d="M13.41 21.45s-.344 1.66-1.6 1.681c-1.254.022-1.736-1.66-1.736-1.66z"/></svg>