<svg xmlns="http://www.w3.org/2000/svg" width="73" height="32" viewBox="0 0 19.315 8.467"><path d="M1.74 7.296a.35.35 0 0 1-.197-.16.258.258 0 0 1-.04-.158c0-.113.035-.187.12-.26a.34.34 0 0 1 .378-.038.176.176 0 0 0 .053.025.735.735 0 0 0 .02-.049.208.208 0 0 1 .39 0c.06.153-.074.303-.24.272-.049-.01-.05-.009-.05.043a.344.344 0 0 1-.308.339.378.378 0 0 1-.127-.014zm.847-.695c-.12-.051-.084-.233.046-.233.072 0 .125.05.125.119 0 .095-.083.15-.17.114zM1.11 6.05a.396.396 0 0 1-.171-.629.398.398 0 0 1 .645.075l.03.056.027-.039a.266.266 0 0 1 .205-.094c.2 0 .316.21.213.385a.249.249 0 0 1-.4.042l-.04-.043-.041.07a.452.452 0 0 1-.213.178.479.479 0 0 1-.255-.001zm1.212-.234c-.056-.034-.075-.069-.075-.135 0-.156.175-.23.285-.12.033.033.04.052.04.108 0 .078-.024.122-.085.153a.16.16 0 0 1-.165-.006zm.135-.712c-.172-.116-.092-.384.115-.384.207 0 .287.268.115.384a.196.196 0 0 1-.115.032.196.196 0 0 1-.115-.032zm-.6-.335c-.097-.045-.176-.156-.176-.248 0-.044-.003-.044-.068-.001a.53.53 0 0 1-.305.07.524.524 0 0 1-.392-.272.475.475 0 0 1-.046-.216c0-.07.011-.14.049-.215a.512.512 0 0 1 .26-.236.427.427 0 0 1 .204-.026c.123.006.191.03.287.1.11.082.192.284.173.431-.009.072-.007.077.017.067a.522.522 0 0 1 .11-.017c.07-.005.097 0 .15.028.179.096.21.347.058.487a.3.3 0 0 1-.32.048zm1.268-.352a.23.23 0 0 1-.142-.121.24.24 0 0 1 .04-.283.226.226 0 0 1 .186-.08c.192 0 .304.19.226.36-.031.07-.076.1-.149.126a.267.267 0 0 1-.16-.002zm.888-.26a.327.327 0 0 1-.19-.174.293.293 0 0 1 .273-.404c.099 0 .172.037.223.094.045.05.081.108.078.21-.002.087-.03.14-.096.207a.314.314 0 0 1-.288.068zm-1.396-.392a.399.399 0 0 1-.213-.195.523.523 0 0 1-.025-.291l.012-.04h-.098a.55.55 0 0 1-.326-.097.61.61 0 0 1-.183-.82.634.634 0 0 1 .52-.295c.078 0 .167.02.258.062.313.149.437.52.275.83a5.913 5.913 0 0 0-.05.098c-.003.005.01.01.028.01.095.001.234.112.284.224a.408.408 0 0 1-.071.418.405.405 0 0 1-.411.096zm1.324-.498a.53.53 0 0 1-.388-.548.534.534 0 0 1 .124-.293c.03-.033.042-.057.032-.06a.952.952 0 0 1-.246-.184.758.758 0 0 1-.197-.52.77.77 0 0 1 .565-.749c.096-.028.306-.03.41-.002a.827.827 0 0 1 .454.334c.141.22.157.51.04.76a.911.911 0 0 1-.266.304c-.035.024-.074.054-.076.055-.002.002.027.019.055.05a.68.68 0 0 1 .088.132.46.46 0 0 1 .05.218.525.525 0 0 1-.645.503z" fill="#0d3653" opacity=".989"/><path class="fil0" style="display:inline;fill:none;stroke-width:1.07655" d="M4.83 3.168h5.077v5.014H4.83z"/><g aria-label="circabc" style="font-style:normal;font-weight:400;font-size:5.25454px;line-height:1.25;font-family:sans-serif;fill:#0d3653;fill-opacity:1;stroke:none;stroke-width:.131363"><g aria-label="circabc share" style="font-style:normal;font-weight:400;font-size:4.26008px;line-height:1.25;font-family:sans-serif;fill:#0d3653;fill-opacity:1;stroke:none;stroke-width:.0139904"><path d="M13.45 2.902c-.167.073-.307.09-.418.09-.307 0-.532-.166-.532-.571 0-.4.187-.562.532-.562a.98.98 0 0 1 .418.089.069.069 0 0 0 .038.013c.021 0 .038-.009.047-.026l.072-.179c.005-.008.005-.021.005-.03a.08.08 0 0 0-.039-.063 1.179 1.179 0 0 0-.58-.124c-.57 0-.868.311-.868.882 0 .562.298.89.869.89.183 0 .383-.025.58-.132a.08.08 0 0 0 .038-.064c0-.008 0-.021-.005-.03l-.072-.17c-.009-.017-.026-.025-.047-.025a.069.069 0 0 0-.038.012zM13.96 3.209c0 .047.035.08.082.08h.213c.047 0 .08-.033.08-.08V1.646a.078.078 0 0 0-.08-.081h-.213a.078.078 0 0 0-.081.08zM15.78 1.931a.069.069 0 0 0 .038.013c.021 0 .039-.009.047-.026l.072-.179c.005-.008.005-.021.005-.03a.08.08 0 0 0-.039-.063.842.842 0 0 0-.434-.107c-.188 0-.46.021-.64.14-.042.026-.067.056-.067.094V3.21c0 .047.034.08.08.08h.214c.047 0 .08-.033.08-.08V1.991c.035-.12.248-.132.35-.132a.71.71 0 0 1 .294.072zM17.437 2.902c-.166.073-.307.09-.417.09-.307 0-.533-.166-.533-.571 0-.4.187-.562.533-.562a.98.98 0 0 1 .417.089.069.069 0 0 0 .038.013c.022 0 .039-.009.047-.026l.073-.179c.004-.008.004-.021.004-.03a.08.08 0 0 0-.038-.063 1.179 1.179 0 0 0-.58-.124c-.57 0-.869.311-.869.882 0 .562.298.89.87.89.182 0 .383-.025.579-.132a.08.08 0 0 0 .038-.064c0-.008 0-.021-.004-.03l-.073-.17c-.008-.017-.025-.025-.047-.025a.069.069 0 0 0-.038.012zM18.98 2.809s-.15.183-.337.183c-.213 0-.422-.081-.422-.503 0-.4.153-.63.758-.63zm.31-1.206a1.423 1.423 0 0 0-.464-.064c-.58 0-.984.311-.984.907 0 .537.238.865.681.865.06 0 .273 0 .435-.157l.077.102a.08.08 0 0 0 .063.034h.18c.046 0 .08-.034.08-.081V1.675c0-.038-.03-.06-.068-.072zM20.981 2.395c0 .4-.136.597-.477.597-.038 0-.221 0-.345-.077v-.941a.637.637 0 0 1 .328-.115c.273 0 .494.127.494.536zm-1.197.729c0 .038.03.055.068.072.2.085.444.115.64.115.57 0 .869-.353.869-.916 0-.562-.337-.856-.759-.856-.042 0-.285 0-.443.09V.95a.078.078 0 0 0-.08-.08h-.214a.078.078 0 0 0-.08.08zM22.984 2.902c-.167.073-.307.09-.418.09-.307 0-.532-.166-.532-.571 0-.4.187-.562.532-.562a.98.98 0 0 1 .418.089.069.069 0 0 0 .038.013c.021 0 .038-.009.047-.026l.072-.179c.005-.008.005-.021.005-.03a.08.08 0 0 0-.039-.063 1.179 1.179 0 0 0-.58-.124c-.57 0-.868.311-.868.882 0 .562.298.89.869.89.183 0 .383-.025.58-.132a.08.08 0 0 0 .038-.064c0-.008 0-.021-.005-.03l-.072-.17c-.009-.017-.026-.025-.047-.025a.069.069 0 0 0-.038.012zM9.294 3.222a1.9 1.9 0 0 0 .545.09c.49 0 .767-.184.767-.525 0-.686-1.027-.396-1.027-.754 0-.153.188-.174.486-.174.043 0 .183.017.298.03.017 0 .055 0 .06-.047.004-.06.017-.175.017-.18 0-.025-.013-.059-.047-.068a2.957 2.957 0 0 0-.473-.055c-.545 0-.724.226-.724.503 0 .711 1.027.396 1.027.758 0 .192-.277.192-.392.192-.09 0-.32-.03-.478-.068-.017 0-.046 0-.06.046a6.481 6.481 0 0 0-.046.184c0 .025.013.06.047.068z" style="font-style:normal;font-variant:normal;font-weight:400;font-stretch:normal;font-family:'Mairy Book';-inkscape-font-specification:'Mairy Book, ';fill:#0d3653;fill-opacity:1;stroke-width:.0139904" transform="matrix(1.0913 0 0 1.0913 -6.665 2.92)"/><path d="M11.707 2.433c0-.092.001-.18-.105-.181-.105 0-.508.004-.607-.002-.099-.005-.106.09-.106.185 0 .091 0 .183.102.183.1-.001.518-.007.617-.007.1 0 .1-.089.099-.178z" style="font-style:normal;font-variant:normal;font-weight:400;font-stretch:normal;font-size:4.26008px;line-height:1.25;font-family:'Mairy Book';-inkscape-font-specification:'Mairy Book, ';fill:#0d3653;fill-opacity:1;stroke:none;stroke-width:.00986042" transform="matrix(1.0913 0 0 1.0913 -6.665 2.92)"/></g></g></svg>