<?xml version="1.0" encoding="UTF-8" standalone="no"?>
<svg
   xmlns:dc="http://purl.org/dc/elements/1.1/"
   xmlns:cc="http://creativecommons.org/ns#"
   xmlns:rdf="http://www.w3.org/1999/02/22-rdf-syntax-ns#"
   xmlns:svg="http://www.w3.org/2000/svg"
   xmlns="http://www.w3.org/2000/svg"
   xmlns:sodipodi="http://sodipodi.sourceforge.net/DTD/sodipodi-0.dtd"
   xmlns:inkscape="http://www.inkscape.org/namespaces/inkscape"
   width="73"
   height="32"
   viewBox="0 0 19.315 8.467"
   version="1.1"
   id="svg14"
   sodipodi:docname="s-circabcLogo-white.svg"
   inkscape:version="1.0.1 (3bc2e813f5, 2020-09-07)">
  <metadata
     id="metadata20">
    <rdf:RDF>
      <cc:Work
         rdf:about="">
        <dc:format>image/svg+xml</dc:format>
        <dc:type
           rdf:resource="http://purl.org/dc/dcmitype/StillImage" />
        <dc:title></dc:title>
      </cc:Work>
    </rdf:RDF>
  </metadata>
  <defs
     id="defs18" />
  <sodipodi:namedview
     pagecolor="#ffffff"
     bordercolor="#666666"
     borderopacity="1"
     objecttolerance="10"
     gridtolerance="10"
     guidetolerance="10"
     inkscape:pageopacity="0"
     inkscape:pageshadow="2"
     inkscape:window-width="1920"
     inkscape:window-height="991"
     id="namedview16"
     showgrid="false"
     inkscape:zoom="16.643836"
     inkscape:cx="36.5"
     inkscape:cy="16"
     inkscape:window-x="-9"
     inkscape:window-y="-9"
     inkscape:window-maximized="1"
     inkscape:current-layer="svg14" />
  <path
     d="M1.74 7.296a.35.35 0 0 1-.197-.16.258.258 0 0 1-.04-.158c0-.113.035-.187.12-.26a.34.34 0 0 1 .378-.038.176.176 0 0 0 .053.025.735.735 0 0 0 .02-.049.208.208 0 0 1 .39 0c.06.153-.074.303-.24.272-.049-.01-.05-.009-.05.043a.344.344 0 0 1-.308.339.378.378 0 0 1-.127-.014zm.847-.695c-.12-.051-.084-.233.046-.233.072 0 .125.05.125.119 0 .095-.083.15-.17.114zM1.11 6.05a.396.396 0 0 1-.171-.629.398.398 0 0 1 .645.075l.03.056.027-.039a.266.266 0 0 1 .205-.094c.2 0 .316.21.213.385a.249.249 0 0 1-.4.042l-.04-.043-.041.07a.452.452 0 0 1-.213.178.479.479 0 0 1-.255-.001zm1.212-.234c-.056-.034-.075-.069-.075-.135 0-.156.175-.23.285-.12.033.033.04.052.04.108 0 .078-.024.122-.085.153a.16.16 0 0 1-.165-.006zm.135-.712c-.172-.116-.092-.384.115-.384.207 0 .287.268.115.384a.196.196 0 0 1-.115.032.196.196 0 0 1-.115-.032zm-.6-.335c-.097-.045-.176-.156-.176-.248 0-.044-.003-.044-.068-.001a.53.53 0 0 1-.305.07.524.524 0 0 1-.392-.272.475.475 0 0 1-.046-.216c0-.07.011-.14.049-.215a.512.512 0 0 1 .26-.236.427.427 0 0 1 .204-.026c.123.006.191.03.287.1.11.082.192.284.173.431-.009.072-.007.077.017.067a.522.522 0 0 1 .11-.017c.07-.005.097 0 .15.028.179.096.21.347.058.487a.3.3 0 0 1-.32.048zm1.268-.352a.23.23 0 0 1-.142-.121.24.24 0 0 1 .04-.283.226.226 0 0 1 .186-.08c.192 0 .304.19.226.36-.031.07-.076.1-.149.126a.267.267 0 0 1-.16-.002zm.888-.26a.327.327 0 0 1-.19-.174.293.293 0 0 1 .273-.404c.099 0 .172.037.223.094.045.05.081.108.078.21-.002.087-.03.14-.096.207a.314.314 0 0 1-.288.068zm-1.396-.392a.399.399 0 0 1-.213-.195.523.523 0 0 1-.025-.291l.012-.04h-.098a.55.55 0 0 1-.326-.097.61.61 0 0 1-.183-.82.634.634 0 0 1 .52-.295c.078 0 .167.02.258.062.313.149.437.52.275.83a5.913 5.913 0 0 0-.05.098c-.003.005.01.01.028.01.095.001.234.112.284.224a.408.408 0 0 1-.071.418.405.405 0 0 1-.411.096zm1.324-.498a.53.53 0 0 1-.388-.548.534.534 0 0 1 .124-.293c.03-.033.042-.057.032-.06a.952.952 0 0 1-.246-.184.758.758 0 0 1-.197-.52.77.77 0 0 1 .565-.749c.096-.028.306-.03.41-.002a.827.827 0 0 1 .454.334c.141.22.157.51.04.76a.911.911 0 0 1-.266.304c-.035.024-.074.054-.076.055-.002.002.027.019.055.05a.68.68 0 0 1 .088.132.46.46 0 0 1 .05.218.525.525 0 0 1-.645.503z"
     fill="#0d3653"
     opacity=".989"
     id="path2"
     style="fill:#ffffff;fill-opacity:1" />
  <path
     class="fil0"
     style="display:inline;fill:none;stroke-width:1.07655"
     d="M4.83 3.168h5.077v5.014H4.83z"
     id="path4" />
  <g
     aria-label="circabc"
     style="font-style:normal;font-weight:400;font-size:5.25454px;line-height:1.25;font-family:sans-serif;fill:#ffffff;fill-opacity:1;stroke:none;stroke-width:0.131363"
     id="g12">
    <g
       aria-label="circabc share"
       style="font-style:normal;font-weight:400;font-size:4.26008px;line-height:1.25;font-family:sans-serif;fill:#ffffff;fill-opacity:1;stroke:none;stroke-width:0.0139904"
       id="g10">
      <path
         d="m 13.45,2.902 c -0.167,0.073 -0.307,0.09 -0.418,0.09 -0.307,0 -0.532,-0.166 -0.532,-0.571 0,-0.4 0.187,-0.562 0.532,-0.562 a 0.98,0.98 0 0 1 0.418,0.089 0.069,0.069 0 0 0 0.038,0.013 c 0.021,0 0.038,-0.009 0.047,-0.026 l 0.072,-0.179 c 0.005,-0.008 0.005,-0.021 0.005,-0.03 A 0.08,0.08 0 0 0 13.573,1.663 1.179,1.179 0 0 0 12.993,1.539 c -0.57,0 -0.868,0.311 -0.868,0.882 0,0.562 0.298,0.89 0.869,0.89 0.183,0 0.383,-0.025 0.58,-0.132 a 0.08,0.08 0 0 0 0.038,-0.064 c 0,-0.008 0,-0.021 -0.005,-0.03 L 13.535,2.915 C 13.526,2.898 13.509,2.89 13.488,2.89 A 0.069,0.069 0 0 0 13.45,2.902 Z m 0.51,0.307 c 0,0.047 0.035,0.08 0.082,0.08 h 0.213 c 0.047,0 0.08,-0.033 0.08,-0.08 V 1.646 a 0.078,0.078 0 0 0 -0.08,-0.081 h -0.213 a 0.078,0.078 0 0 0 -0.081,0.08 z m 1.82,-1.278 a 0.069,0.069 0 0 0 0.038,0.013 c 0.021,0 0.039,-0.009 0.047,-0.026 l 0.072,-0.179 c 0.005,-0.008 0.005,-0.021 0.005,-0.03 A 0.08,0.08 0 0 0 15.903,1.646 0.842,0.842 0 0 0 15.469,1.539 c -0.188,0 -0.46,0.021 -0.64,0.14 -0.042,0.026 -0.067,0.056 -0.067,0.094 V 3.21 c 0,0.047 0.034,0.08 0.08,0.08 h 0.214 c 0.047,0 0.08,-0.033 0.08,-0.08 V 1.991 c 0.035,-0.12 0.248,-0.132 0.35,-0.132 a 0.71,0.71 0 0 1 0.294,0.072 z m 1.657,0.971 c -0.166,0.073 -0.307,0.09 -0.417,0.09 -0.307,0 -0.533,-0.166 -0.533,-0.571 0,-0.4 0.187,-0.562 0.533,-0.562 a 0.98,0.98 0 0 1 0.417,0.089 0.069,0.069 0 0 0 0.038,0.013 c 0.022,0 0.039,-0.009 0.047,-0.026 l 0.073,-0.179 c 0.004,-0.008 0.004,-0.021 0.004,-0.03 A 0.08,0.08 0 0 0 17.561,1.663 1.179,1.179 0 0 0 16.981,1.539 c -0.57,0 -0.869,0.311 -0.869,0.882 0,0.562 0.298,0.89 0.87,0.89 0.182,0 0.383,-0.025 0.579,-0.132 a 0.08,0.08 0 0 0 0.038,-0.064 c 0,-0.008 0,-0.021 -0.004,-0.03 L 17.522,2.915 C 17.514,2.898 17.497,2.89 17.475,2.89 A 0.069,0.069 0 0 0 17.437,2.902 Z M 18.98,2.809 c 0,0 -0.15,0.183 -0.337,0.183 -0.213,0 -0.422,-0.081 -0.422,-0.503 0,-0.4 0.153,-0.63 0.758,-0.63 z M 19.29,1.603 A 1.423,1.423 0 0 0 18.826,1.539 c -0.58,0 -0.984,0.311 -0.984,0.907 0,0.537 0.238,0.865 0.681,0.865 0.06,0 0.273,0 0.435,-0.157 l 0.077,0.102 a 0.08,0.08 0 0 0 0.063,0.034 h 0.18 c 0.046,0 0.08,-0.034 0.08,-0.081 V 1.675 c 0,-0.038 -0.03,-0.06 -0.068,-0.072 z m 1.691,0.792 c 0,0.4 -0.136,0.597 -0.477,0.597 -0.038,0 -0.221,0 -0.345,-0.077 V 1.974 a 0.637,0.637 0 0 1 0.328,-0.115 c 0.273,0 0.494,0.127 0.494,0.536 z m -1.197,0.729 c 0,0.038 0.03,0.055 0.068,0.072 0.2,0.085 0.444,0.115 0.64,0.115 0.57,0 0.869,-0.353 0.869,-0.916 0,-0.562 -0.337,-0.856 -0.759,-0.856 -0.042,0 -0.285,0 -0.443,0.09 V 0.95 a 0.078,0.078 0 0 0 -0.08,-0.08 h -0.214 a 0.078,0.078 0 0 0 -0.08,0.08 z m 3.2,-0.222 c -0.167,0.073 -0.307,0.09 -0.418,0.09 -0.307,0 -0.532,-0.166 -0.532,-0.571 0,-0.4 0.187,-0.562 0.532,-0.562 a 0.98,0.98 0 0 1 0.418,0.089 0.069,0.069 0 0 0 0.038,0.013 c 0.021,0 0.038,-0.009 0.047,-0.026 l 0.072,-0.179 c 0.005,-0.008 0.005,-0.021 0.005,-0.03 A 0.08,0.08 0 0 0 23.107,1.663 1.179,1.179 0 0 0 22.527,1.539 c -0.57,0 -0.868,0.311 -0.868,0.882 0,0.562 0.298,0.89 0.869,0.89 0.183,0 0.383,-0.025 0.58,-0.132 a 0.08,0.08 0 0 0 0.038,-0.064 c 0,-0.008 0,-0.021 -0.005,-0.03 L 23.069,2.915 C 23.06,2.898 23.043,2.89 23.022,2.89 a 0.069,0.069 0 0 0 -0.038,0.012 z m -13.69,0.32 a 1.9,1.9 0 0 0 0.545,0.09 c 0.49,0 0.767,-0.184 0.767,-0.525 0,-0.686 -1.027,-0.396 -1.027,-0.754 0,-0.153 0.188,-0.174 0.486,-0.174 0.043,0 0.183,0.017 0.298,0.03 0.017,0 0.055,0 0.06,-0.047 0.004,-0.06 0.017,-0.175 0.017,-0.18 0,-0.025 -0.013,-0.059 -0.047,-0.068 A 2.957,2.957 0 0 0 9.92,1.539 c -0.545,0 -0.724,0.226 -0.724,0.503 0,0.711 1.027,0.396 1.027,0.758 0,0.192 -0.277,0.192 -0.392,0.192 -0.09,0 -0.32,-0.03 -0.478,-0.068 -0.017,0 -0.046,0 -0.06,0.046 A 6.481,6.481 0 0 0 9.247,3.154 c 0,0.025 0.013,0.06 0.047,0.068 z"
         style="font-style:normal;font-variant:normal;font-weight:400;font-stretch:normal;font-family:'Mairy Book';-inkscape-font-specification:'Mairy Book, ';fill:#ffffff;fill-opacity:1;stroke-width:0.0139904"
         transform="matrix(1.0913,0,0,1.0913,-6.665,2.92)"
         id="path6" />
      <path
         d="m 11.707,2.433 c 0,-0.092 10e-4,-0.18 -0.105,-0.181 -0.105,0 -0.508,0.004 -0.607,-0.002 -0.099,-0.005 -0.106,0.09 -0.106,0.185 0,0.091 0,0.183 0.102,0.183 0.1,-10e-4 0.518,-0.007 0.617,-0.007 0.1,0 0.1,-0.089 0.099,-0.178 z"
         style="font-style:normal;font-variant:normal;font-weight:400;font-stretch:normal;font-size:4.26008px;line-height:1.25;font-family:'Mairy Book';-inkscape-font-specification:'Mairy Book, ';fill:#ffffff;fill-opacity:1;stroke:none;stroke-width:0.00986042"
         transform="matrix(1.0913,0,0,1.0913,-6.665,2.92)"
         id="path8" />
    </g>
  </g>
</svg>
