<svg xmlns="http://www.w3.org/2000/svg" width="42" height="42"><path style="display:inline;fill:#0d3653;fill-opacity:1;stroke:#0d3653;stroke-width:.0284341px;stroke-linecap:butt;stroke-linejoin:miter;stroke-opacity:1" d="M21 2.49c-4.891 0-9.606 1.753-13.22 4.915C.204-1.717 1.296 6.318 1.296 6.318l.044 11.137 11.632.13s4.74.823-1.207-5.914c2.517-2.273 5.843-3.539 9.3-3.54h.001c3.6 0 7.052 1.373 9.598 3.816 2.545 2.443 3.975 5.756 3.975 9.21 0 3.456-1.43 6.769-3.975 9.212-2.546 2.443-5.998 3.815-9.598 3.815-4.024 0-7.84-1.714-10.42-4.678l-3.983 4.11C10.385 38.132 15 40.157 21 40.157c5.204 0 10.196-1.984 13.876-5.516 3.68-3.532 5.748-8.323 5.748-13.318 0-4.995-2.068-9.785-5.748-13.317S26.204 2.49 21 2.49z"/></svg>