<svg xmlns="http://www.w3.org/2000/svg" width="160" height="32" viewBox="0 0 42.334 8.467"><path d="M31.93 1.301c.792 0 1.494.139 1.494 1.163 0 1.009-.713 1.05-1.506 1.05H30.83l.011-2.213zm.38 5.829h-1.492l.012-2.58h1.491c.793 0 1.493.31 1.493 1.346 0 1.024-.712 1.234-1.505 1.234zM29.913.265c-.148 0-.255.112-.255.266l-.023 7.356a.25.255 0 0 0 .255.266h2.445c1.72 0 2.66-.49 2.66-2.256 0-.8-.136-1.613-1.117-1.893.66-.476.728-1.008.728-1.54.001-1.781-1.078-2.2-2.636-2.2z" style="font-style:normal;font-variant:normal;font-weight:400;font-stretch:normal;font-size:13.5904px;line-height:1.25;font-family:'Mairy Book';-inkscape-font-specification:'Mairy Book, ';fill:#fff;fill-opacity:1;stroke:none;stroke-width:.343054"/><path d="M25.688 2.389c.246.812.691 2.282.638 2.406-.024.053-.162.178-.328.197-.417 0-.453.002-1.165.005-.127-.007-.217-.095-.274-.21-.017-.115.405-1.556.655-2.379.126-.306.398-.206.473-.02zm1.723 5.784 1.126.004c.087 0 .115-.1.09-.151 0 0-.618-1.965-.866-2.734-.498-1.54-1.161-3.414-1.567-4.73-.082-.25-.279-.297-.349-.297h-.832c-.07 0-.27.055-.35.306-.505 1.653-2.11 7.19-2.18 7.433 0 .152.035.146.164.148l.83.011c.13.002.106-.111.153-.263 0 0 .423-1.466.55-1.678.148-.2 2.44-.142 2.566-.047.117.116.59 1.919.59 1.919.009.042.029.078.075.08z" style="font-style:normal;font-variant:normal;font-weight:400;font-stretch:normal;font-size:45.017px;line-height:1.25;font-family:'Mairy Book';-inkscape-font-specification:'Mairy Book, ';display:inline;fill:#fff;fill-opacity:1;stroke:none;stroke-width:.318956"/><path d="M21.625.577C20.99.23 20.075.266 19.481.266c-1.853 0-2.933.739-2.933 4.022 0 2.965 1.091 3.947 2.944 3.947.594 0 1.489-.076 2.163-.252a.258.258 0 0 0 .124-.207s0-.069-.013-.097l-.075-.646c-.028-.056-.083-.083-.153-.083 0 0-.088.016-.124.042-.56.141-1.452.205-1.784.205-.76 0-1.866-.499-1.866-2.909 0-2.937 1.094-2.997 1.855-2.997.304 0 1.177-.008 1.675.187.036.025.08.04.124.04.07 0 .153-.083.153-.083l.165-.554c.013-.027.013-.068.013-.098a.258.258 0 0 0-.124-.206z" style="font-style:normal;font-variant:normal;font-weight:400;font-stretch:normal;font-size:13.5904px;line-height:1.25;font-family:'Mairy Book';-inkscape-font-specification:'Mairy Book, ';fill:#fff;fill-opacity:1;stroke:none;stroke-width:.345994"/><path d="M14.311 4.756c.68-.326 1.078-.477 1.071-2.214C15.376.806 14.598.265 13.398.265H10.75a.23.23 0 0 0-.235.238l.004 7.47c-.004.132.1.125.231.122h.62c.135 0 .227.024.226-.114.046-.954.004-2.99.064-3.05.01-.07 1.334-.054 1.368.015l1.101 2.672c.112.289.204.558.434.544 0 0 1.16.064 1.267-.042.107-.106-1.16-2.668-1.518-3.364zM11.61 1.382l1.825.006c.59.004.922.38.93 1.187.007.807-.395 1.214-.902 1.247h-1.805c-.046-.44-.06-2.173-.048-2.44z" style="font-style:normal;font-variant:normal;font-weight:400;font-stretch:normal;font-size:44.2763px;line-height:1.25;font-family:'Mairy Book';-inkscape-font-specification:'Mairy Book, ';fill:#fff;fill-opacity:1;stroke:none;stroke-width:.311692"/><path d="M7.59 7.81c0 .152.096.262.228.262h.601c.133 0 .23-.11.23-.26V.525c-.002-.15-.097-.26-.23-.26h-.6c-.133 0-.23.11-.23.26z" style="font-style:normal;font-variant:normal;font-weight:400;font-stretch:normal;font-size:12.8591px;line-height:1.25;font-family:'Mairy Book';-inkscape-font-specification:'Mairy Book, ';fill:#fff;fill-opacity:1;stroke:none;stroke-width:.321477"/><path d="M41.429.577c-.636-.347-1.55-.311-2.144-.311-1.853 0-2.933.739-2.933 4.022 0 2.965 1.091 3.947 2.944 3.947.594 0 1.488-.076 2.163-.252a.258.258 0 0 0 .124-.207s0-.069-.013-.097l-.076-.646c-.028-.056-.083-.083-.153-.083 0 0-.088.016-.124.042-.56.141-1.451.205-1.783.205-.76 0-1.866-.499-1.866-2.909 0-2.937 1.094-2.997 1.855-2.997.304 0 1.177-.008 1.675.187.036.025.08.04.124.04.07 0 .153-.083.153-.083l.165-.554c.013-.027.013-.068.013-.098a.258.258 0 0 0-.124-.206zM5.877.577C5.241.23 4.327.266 3.733.266 1.88.266.8 1.005.8 4.288c0 2.965 1.091 3.947 2.944 3.947.594 0 1.488-.076 2.163-.252a.258.258 0 0 0 .124-.207s0-.069-.013-.097l-.076-.646c-.028-.056-.083-.083-.153-.083 0 0-.088.016-.124.042-.56.141-1.45.205-1.783.205-.76 0-1.866-.499-1.866-2.909 0-2.937 1.094-2.997 1.855-2.997.304 0 1.177-.008 1.675.187.036.025.08.04.124.04.07 0 .153-.083.153-.083l.165-.554c.013-.027.013-.068.013-.098a.258.258 0 0 0-.124-.206z" style="font-style:normal;font-variant:normal;font-weight:400;font-stretch:normal;font-size:13.5904px;line-height:1.25;font-family:'Mairy Book';-inkscape-font-specification:'Mairy Book, ';fill:#fff;fill-opacity:1;stroke:none;stroke-width:.345993"/></svg>